<?xml version="1.0" encoding="utf-8"?>
<!-- Generator: Adobe Illustrator 16.0.0, SVG Export Plug-In . SVG Version: 6.00 Build 0)  -->
<!DOCTYPE svg PUBLIC "-//W3C//DTD SVG 1.1//EN" "http://www.w3.org/Graphics/SVG/1.1/DTD/svg11.dtd">
<svg version="1.1" id="Layer_1" xmlns="http://www.w3.org/2000/svg" xmlns:xlink="http://www.w3.org/1999/xlink" x="0px" y="0px"
	 width="120px" height="120px" viewBox="0 0 120 120" enable-background="new 0 0 120 120" xml:space="preserve">
<g>
	<path fill="#9DE7CD" d="M81.05,39.236l0.108-0.069c0.825-0.531,1.064-1.63,0.533-2.456c-0.523-0.812-1.597-1.053-2.418-0.552
		L61.795,5.885c-0.556-0.962-1.583-1.555-2.693-1.555c-1.11,0-2.138,0.593-2.693,1.555l-17.401,30.14
		c-0.776-0.312-1.687-0.042-2.157,0.686c-0.499,0.778-0.31,1.792,0.403,2.352L14.651,78.212c-0.555,0.963-0.555,2.209,0,3.171
		C15.207,82.346,16.234,83,17.344,83h24.355c-0.236,1,0.139,1.754,0.931,2.136c0.249,0.119,0.511,0.2,0.771,0.2
		c0.66,0,1.295-0.295,1.602-0.931L45.659,83H57v0.109c0,0.98,1.019,1.776,2,1.776c0.981,0,2-0.796,2-1.776V83h12.399l0.431,0.784
		c0.318,0.604,0.936,0.974,1.574,0.974c0.279,0,0.562,0.008,0.827-0.131c0.586-0.31,0.92-0.627,0.939-1.627h23.688
		c0.008,0,0.015,0,0.018,0c1.718,0,3.109-1.454,3.109-3.172c0-0.678-0.217-1.336-0.584-1.848L81.05,39.236z M25.808,75
		l10.244-17.804c6.592,5.604,13.95,8.417,21.816,8.417c8.841,0,17.446-3.534,23.546-9.677L92.396,75H25.808z M39.948,50.388
		c1.786-1.719,3.647-3.164,5.577-4.341c-0.207,0.953-0.321,1.941-0.321,2.956c0,3.14,1.043,6.039,2.799,8.373
		c-3.036-1.288-5.942-3.212-8.754-5.777L39.948,50.388z M59.321,57.237c4.547,0,8.233-3.687,8.233-8.235
		c0-1.338-0.326-2.597-0.892-3.713c-0.276,2.036-2.003,3.611-4.112,3.611c-2.305,0-4.172-1.867-4.172-4.171
		c0-0.936,0.317-1.792,0.839-2.487c3.148,0.037,6.208,0.608,9.058,1.664c0.85,1.507,1.338,3.244,1.338,5.096
		c0,4.762-3.208,8.781-7.572,10.031c-1.35,0.213-2.723,0.325-4.108,0.329c-5.173-0.617-9.2-5.023-9.2-10.359
		c0-1.893,0.51-3.667,1.396-5.197c1.27-0.471,2.565-0.836,3.886-1.094c-1.79,1.511-2.928,3.767-2.928,6.292
		C51.086,53.551,54.773,57.237,59.321,57.237z M72.835,46.114c1.871,1.145,3.597,2.527,5.131,4.126
		c-1.865,2.167-4.08,3.997-6.532,5.437c1.086-1.985,1.709-4.257,1.709-6.674C73.143,48.011,73.034,47.046,72.835,46.114z
		 M58.854,36.016c-4.182,0-8.173,0.784-11.951,2.326l12.198-21.129l12.233,21.188C67.417,36.845,63.178,36.016,58.854,36.016z"/>
	<path fill="#9DE7CD" d="M59,99.102c-0.981,0-2,0.795-2,1.776v3.554c0,0.981,1.019,1.777,2,1.777c0.981,0,2-0.796,2-1.777v-3.554
		C61,99.896,59.981,99.102,59,99.102z"/>
	<path fill="#9DE7CD" d="M59,109.763c-0.981,0-2,0.796-2,1.776v3.555c0,0.98,1.019,1.776,2,1.776c0.981,0,2-0.796,2-1.776v-3.555
		C61,110.559,59.981,109.763,59,109.763z"/>
	<path fill="#9DE7CD" d="M59,88.439c-0.981,0-2,0.796-2,1.777v3.554c0,0.981,1.019,1.776,2,1.776c0.981,0,2-0.795,2-1.776v-3.554
		C61,89.235,59.981,88.439,59,88.439z"/>
	<path fill="#9DE7CD" d="M95.146,29.841c0.329,0,0.662-0.091,0.96-0.282l2.988-1.922c0.825-0.531,1.063-1.63,0.534-2.456
		c-0.531-0.825-1.63-1.064-2.457-0.534l-2.988,1.922c-0.825,0.531-1.064,1.63-0.534,2.456C93.99,29.553,94.562,29.841,95.146,29.841
		z"/>
	<path fill="#9DE7CD" d="M86.178,35.606c0.329,0,0.662-0.091,0.959-0.282l2.989-1.922c0.826-0.531,1.064-1.63,0.535-2.455
		c-0.531-0.826-1.631-1.064-2.456-0.535l-2.989,1.922c-0.826,0.531-1.064,1.63-0.535,2.456
		C85.021,35.318,85.593,35.606,86.178,35.606z"/>
	<path fill="#9DE7CD" d="M108.597,19.416c-0.532-0.826-1.631-1.064-2.457-0.534l-2.988,1.921c-0.825,0.531-1.063,1.63-0.534,2.456
		c0.341,0.528,0.912,0.816,1.497,0.816c0.329,0,0.662-0.091,0.96-0.282l2.988-1.922C108.888,21.341,109.127,20.242,108.597,19.416z"
		/>
	<path fill="#9DE7CD" d="M28.417,33.402l2.99,1.922c0.297,0.191,0.63,0.282,0.959,0.282c0.584,0,1.156-0.288,1.497-0.816
		c0.53-0.825,0.292-1.924-0.535-2.456l-2.99-1.922c-0.824-0.53-1.924-0.292-2.455,0.535C27.353,31.772,27.591,32.872,28.417,33.402z
		"/>
	<path fill="#9DE7CD" d="M14.429,24.076c0.585,0,1.157-0.288,1.497-0.816c0.53-0.826,0.292-1.925-0.534-2.456l-2.989-1.921
		c-0.826-0.531-1.924-0.292-2.457,0.534c-0.53,0.826-0.292,1.925,0.534,2.456l2.989,1.922C13.767,23.984,14.1,24.076,14.429,24.076z
		"/>
	<path fill="#9DE7CD" d="M19.448,27.637l2.989,1.922c0.297,0.191,0.631,0.282,0.959,0.282c0.585,0,1.157-0.288,1.497-0.815
		c0.53-0.826,0.292-1.925-0.534-2.456l-2.989-1.922c-0.827-0.53-1.925-0.291-2.457,0.534C18.385,26.007,18.623,27.106,19.448,27.637
		z"/>
	<path fill="#9DE7CD" d="M78.162,14.884c0.264,0.137,0.543,0.202,0.82,0.202c0.641,0,1.261-0.348,1.577-0.956l1.644-3.152
		c0.454-0.87,0.116-1.943-0.754-2.397c-0.872-0.452-1.943-0.116-2.397,0.754l-1.644,3.152
		C76.955,13.357,77.293,14.431,78.162,14.884z"/>
	<path fill="#9DE7CD" d="M73.235,24.338c0.262,0.137,0.542,0.201,0.819,0.201c0.641,0,1.26-0.348,1.577-0.956l1.642-3.151
		c0.455-0.871,0.117-1.944-0.754-2.397c-0.869-0.454-1.943-0.115-2.396,0.754l-1.643,3.152
		C72.027,22.812,72.364,23.885,73.235,24.338z"/>
	<path fill="#9DE7CD" d="M41.585,24.416c0.331,0.565,0.925,0.88,1.536,0.88c0.305,0,0.614-0.078,0.896-0.243
		c0.847-0.496,1.132-1.584,0.637-2.431l-1.794-3.067c-0.496-0.846-1.583-1.132-2.431-0.636c-0.847,0.496-1.132,1.584-0.637,2.431
		L41.585,24.416z"/>
	<path fill="#9DE7CD" d="M36.202,15.214c0.331,0.565,0.925,0.88,1.536,0.88c0.304,0,0.613-0.079,0.895-0.244
		c0.848-0.496,1.132-1.584,0.637-2.431l-1.795-3.067c-0.495-0.847-1.583-1.132-2.431-0.636s-1.132,1.584-0.637,2.431L36.202,15.214z
		"/>
	<path fill="#9DE7CD" d="M17.958,52c0-0.981-0.795-2-1.777-2h-3.554c-0.981,0-1.777,1.019-1.777,2s0.795,2,1.777,2h3.554
		C17.163,54,17.958,52.981,17.958,52z"/>
	<path fill="#9DE7CD" d="M21.513,52c0,0.981,0.795,2,1.777,2h3.554c0.981,0,1.777-1.019,1.777-2s-0.795-2-1.777-2H23.29
		C22.308,50,21.513,51.019,21.513,52z"/>
	<path fill="#9DE7CD" d="M94.365,50h-3.554c-0.981,0-1.776,1.019-1.776,2s0.795,2,1.776,2h3.554c0.981,0,1.777-1.019,1.777-2
		S95.347,50,94.365,50z"/>
	<path fill="#9DE7CD" d="M105.027,50h-3.555c-0.98,0-1.776,1.019-1.776,2s0.796,2,1.776,2h3.555c0.98,0,1.776-1.019,1.776-2
		S106.008,50,105.027,50z"/>
	<path fill="#9DE7CD" d="M41.088,88.387c-0.884-0.425-1.945-0.056-2.372,0.829l-1.542,3.202c-0.426,0.884-0.055,1.946,0.829,2.372
		c0.249,0.119,0.511,0.176,0.771,0.176c0.66,0,1.295-0.37,1.602-1.005l1.543-3.202C42.343,89.875,41.972,88.812,41.088,88.387z"/>
	<path fill="#9DE7CD" d="M36.459,97.991c-0.882-0.426-1.946-0.054-2.371,0.831l-0.405,0.841c-0.426,0.885-0.055,1.946,0.831,2.371
		c0.248,0.12,0.511,0.177,0.77,0.177c0.661,0,1.296-0.371,1.602-1.007l0.405-0.842C37.715,99.479,37.344,98.417,36.459,97.991z"/>
	<path fill="#9DE7CD" d="M85.263,97.895c-0.458-0.868-1.534-1.199-2.401-0.744c-0.868,0.458-1.201,1.533-0.743,2.401l0.902,1.711
		c0.318,0.604,0.936,0.948,1.574,0.948c0.279,0,0.562-0.066,0.826-0.205c0.869-0.458,1.201-1.533,0.744-2.4L85.263,97.895z"/>
	<path fill="#9DE7CD" d="M81.947,91.607l-1.657-3.145c-0.458-0.868-1.53-1.199-2.401-0.743c-0.867,0.458-1.2,1.532-0.743,2.4
		l1.657,3.145c0.318,0.604,0.936,0.948,1.574,0.948c0.279,0,0.562-0.065,0.826-0.205C82.071,93.55,82.404,92.476,81.947,91.607z"/>
</g>
</svg>
